<svg xmlns="http://www.w3.org/2000/svg" xmlns:xlink="http://www.w3.org/1999/xlink" version="1.1" x="0px" y="0px" viewBox="0 0 100 125" enable-background="new 0 0 100 100" xml:space="preserve"><rect x="-192" width="185" height="99"/><rect y="-36" width="100" height="30"/><text transform="matrix(1 0 0 1 66 -19.5)" fill="#000000" font-family="'Helvetica'" font-size="2.4">http://thenounproject.com</text><text transform="matrix(1 0 0 1 7.166 -24.5)" fill="#000000" font-family="'Helvetica-Bold'" font-size="6.1578">The Noun Project</text><text transform="matrix(1 0 0 1 8.2861 -19.7002)" fill="#000000" font-family="'Helvetica-Bold'" font-size="4">Icon Template</text><text transform="matrix(1 0 0 1 -178.5 10.5)" fill="#000000" font-family="'Helvetica-Bold'" font-size="6.1578">Reminders</text><line fill="#000000" stroke="#FFFFFF" stroke-miterlimit="10" x1="8" y1="-14.5" x2="18" y2="-14.5"/><line fill="#000000" stroke="#FFFFFF" stroke-miterlimit="10" x1="-179" y1="16.5" x2="-162" y2="16.5"/><g><g><rect x="-170.802" y="31.318" fill="#000000" width="8.721" height="8.642"/><path fill="#000000" d="M-164.455,42.312h4.747v-4.703h-4.747V42.312z M-159.266,42.749h-5.63V37.17h5.63V42.749L-159.266,42.749z     M-166.221,44.062h8.279v-8.203h-8.279V44.062L-166.221,44.062z M-157.5,44.5h-9.163v-9.079h9.163V44.5L-157.5,44.5z"/><polygon fill="#000000" points="-166.149,44.133 -166.292,43.991 -158.013,35.787 -157.871,35.929   "/></g></g><rect x="-179" y="58" fill="none" width="35" height="32.5"/><text transform="matrix(1 0 0 1 -179 60.1572)" fill="#000000" font-family="'Helvetica-Bold'" font-size="3">Strokes</text><text transform="matrix(1 0 0 1 -179 65.1572)" fill="#000000" font-family="'Helvetica'" font-size="2.4">Try to keep strokes at 4px</text><text transform="matrix(1 0 0 1 -179 70.1572)" fill="#000000" font-family="'Helvetica'" font-size="2.4">Minimum stroke weight is 2px</text><text transform="matrix(1 0 0 1 -179 74.6572)" fill="#000000" font-family="'Helvetica'" font-size="2.4">For thicker strokes use even </text><text transform="matrix(1 0 0 1 -179 77.6572)" fill="#000000" font-family="'Helvetica'" font-size="2.4">numbers: 6px, 8px etc.</text><text transform="matrix(1 0 0 1 -179 82.1572)" fill="#000000" font-family="'Helvetica-Bold'" font-size="2.4">Remember to expand strokes </text><text transform="matrix(1 0 0 1 -179 85.1572)" fill="#000000" font-family="'Helvetica-Bold'" font-size="2.4">before saving as an SVG </text><rect x="-136.5" y="58" fill="none" width="35" height="32.5"/><text transform="matrix(1 0 0 1 -136.5 60.1572)" fill="#000000" font-family="'Helvetica-Bold'" font-size="3">Size</text><text transform="matrix(1 0 0 1 -136.5 65.1572)" fill="#000000" font-family="'Helvetica'" font-size="2.4">Cannot be wider or taller than </text><text transform="matrix(1 0 0 1 -136.5 68.6572)" fill="#000000" font-family="'Helvetica'" font-size="2.4">100px (artboard size)</text><text transform="matrix(1 0 0 1 -136.5 73.6572)" fill="#000000" font-family="'Helvetica'" font-size="2.4">Scale your icon to fill as much of </text><text transform="matrix(1 0 0 1 -136.5 76.6572)" fill="#000000" font-family="'Helvetica'" font-size="2.4">the artboard as possible</text><rect x="-94" y="58" fill="none" width="35" height="32.5"/><text transform="matrix(1 0 0 1 -94 60.1572)" fill="#000000" font-family="'Helvetica-Bold'" font-size="3">Ungroup</text><text transform="matrix(1 0 0 1 -94 65.1572)" fill="#000000" font-family="'Helvetica'" font-size="2.4">If your design has more than one </text><text transform="matrix(1 0 0 1 -94 68.1572)" fill="#000000" font-family="'Helvetica'" font-size="2.4">shape, make sure to ungroup</text><rect x="-50" y="58" fill="none" width="35" height="32.5"/><text transform="matrix(1 0 0 1 -50 60.1572)" fill="#000000" font-family="'Helvetica-Bold'" font-size="3">Save as</text><text transform="matrix(1 0 0 1 -50 65.1572)" fill="#000000" font-family="'Helvetica'" font-size="2.4">Save as .SVG and make sure </text><text transform="matrix(1 0 0 1 -50 68.1572)" fill="#000000" font-family="'Helvetica'" font-size="2.4">“Use Artboards” is checked</text><text transform="matrix(1.0074 0 0 1 -125.542 30.5938)" fill="#000000" font-family="'Helvetica'" font-size="2.5731">100px</text><text transform="matrix(1.0074 0 0 1 -41 39)" fill="#000000" font-family="'Helvetica-Bold'" font-size="5.1462">.SVG</text><rect x="-126.514" y="34.815" fill="#000000" width="10.261" height="10.185"/><rect x="-126.477" y="31.766" fill="#000000" width="0.522" height="2.337"/><rect x="-116.812" y="31.766" fill="#000000" width="0.523" height="2.337"/><rect x="-127" y="32.337" fill="#000000" width="11.233" height="0.572"/><rect x="-83.805" y="33.844" fill="#000000" width="10.305" height="10.156"/><rect x="-76.809" y="28.707" fill="#000000" width="3.308" height="3.261"/><rect x="-178.5" y="22.5" fill="#000000" stroke="#FFFFFF" stroke-miterlimit="10" width="30" height="30"/><rect x="-136.5" y="22.5" fill="#000000" stroke="#FFFFFF" stroke-miterlimit="10" width="30" height="30"/><rect x="-93.5" y="22.5" fill="#000000" stroke="#FFFFFF" stroke-miterlimit="10" width="30" height="30"/><rect x="-49.5" y="22.5" fill="#000000" stroke="#FFFFFF" stroke-miterlimit="10" width="30" height="30"/><path d="M48.064,48.306c-10.679,10.68-28.055,10.679-38.735,0C-1.348,37.627-1.348,20.25,9.33,9.572  c10.679-10.679,28.056-10.679,38.733,0C58.743,20.25,58.744,37.627,48.064,48.306z M14.121,14.362  c-8.038,8.039-8.038,21.116,0,29.153c8.037,8.039,21.116,8.039,29.153,0c8.038-8.037,8.038-21.116-0.001-29.153  C35.236,6.325,22.159,6.325,14.121,14.362z"/><rect x="47.826" y="48.895" transform="matrix(0.7072 -0.707 0.707 0.7072 -21.4378 51.4074)" width="7.036" height="5.38"/><path d="M59.842,53.205c1.05,1.051,1.05,2.754,0,3.804l-3.073,3.075c-1.051,1.048-2.755,1.049-3.804,0l0,0  c-1.051-1.051-1.051-2.755,0-3.805l3.072-3.074C57.089,52.155,58.792,52.156,59.842,53.205L59.842,53.205z"/><path d="M76.085,71.426c-3.731-3.731-7.572-10.206-9.29-11.926c-1.72-1.717-4.646-2.45-4.646-2.45l-2.633,2.635l-0.073,0.073  l-2.635,2.634c0,0,0.733,2.926,2.452,4.644c1.719,1.719,8.192,5.561,11.924,9.292c5.853,5.852,12.729,17.703,15.617,20.593  c0.951,0.951,5.195,3.804,9.438-0.438l-0.144-0.144l0.145,0.144c4.243-4.245,1.391-8.487,0.439-9.438  C93.788,84.153,81.938,77.278,76.085,71.426z"/></svg>